# xmcd CD database file
#
# Track frame offsets:
#	150
#	19793
#	38168
#
# Disc length: 769 seconds
#
# Revision: 4
# Processed by: cddbd v1.5.1PL0 Copyright (c) Steve Scherf et al.
# Submitted via: CDex 1.50
#
DISCID=1a02ff03
DTITLE=長瀬実夕 - snowy love
DYEAR=2004
DGENRE=JPop
TTITLE0=snowy love
TTITLE1=2 of us
TTITLE2=snowy love -instrumental-
EXTD=YEAR: 2004
EXTT0=
EXTT1=
EXTT2=
PLAYORDER=
